<svg width="25" height="24" viewBox="0 0 25 24" fill="none" xmlns="http://www.w3.org/2000/svg">
<g clip-path="url(#clip0_1020_8531)">
<path d="M21.668 18V19C21.668 20.1 20.768 21 19.668 21H5.66797C4.55797 21 3.66797 20.1 3.66797 19V5C3.66797 3.9 4.55797 3 5.66797 3H19.668C20.768 3 21.668 3.9 21.668 5V6H12.668C11.558 6 10.668 6.9 10.668 8V16C10.668 17.1 11.558 18 12.668 18H21.668ZM12.668 16H22.668V8H12.668V16ZM16.668 13.5C15.838 13.5 15.168 12.83 15.168 12C15.168 11.17 15.838 10.5 16.668 10.5C17.498 10.5 18.168 11.17 18.168 12C18.168 12.83 17.498 13.5 16.668 13.5Z" fill="white"/>
</g>
<defs>
<clipPath id="clip0_1020_8531">
<rect width="24" height="24" fill="white" transform="translate(0.667969)"/>
</clipPath>
</defs>
</svg>
