<svg width="16" height="16" viewBox="0 0 16 16" fill="none" xmlns="http://www.w3.org/2000/svg">
<path d="M4.6875 7.22461H11.325V7.97461H4.6875V7.22461ZM4.6875 10.5246H8.75V11.2746H4.6875V10.5246Z" fill="#656F77"/>
<path d="M12.7875 15.3375H3.2125C3.0125 15.3375 2.825 15.3 2.6375 15.225C2.4625 15.15 2.3 15.05 2.175 14.9125C2.0375 14.775 1.9375 14.625 1.8625 14.45C1.7875 14.2625 1.75 14.075 1.75 13.875V3.9125C1.75 3.7125 1.7875 3.525 1.8625 3.3375C1.9375 3.1625 2.0375 3 2.175 2.875C2.3125 2.7375 2.4625 2.6375 2.6375 2.5625C2.825 2.4875 3.0125 2.45 3.2125 2.45H4.6625V3.1875H3.2125C2.8125 3.1875 2.475 3.5125 2.475 3.925V13.8875C2.475 14.2875 2.8 14.625 3.2125 14.625H12.775C13.175 14.625 13.5125 14.3 13.5125 13.8875V3.9125C13.5125 3.5125 13.1875 3.175 12.775 3.175H11.3375V2.4375H12.7875C12.9875 2.4375 13.175 2.475 13.3625 2.55C13.5375 2.625 13.7 2.725 13.825 2.8625C13.9625 3 14.0625 3.15 14.1375 3.325C14.2125 3.5125 14.25 3.7 14.25 3.9V13.8625C14.25 14.0625 14.2125 14.25 14.1375 14.4375C14.0625 14.6125 13.9625 14.775 13.825 14.9C13.6875 15.0375 13.5375 15.1375 13.3625 15.2125C13.175 15.3 12.9875 15.3375 12.7875 15.3375Z" fill="#656F77"/>
<path d="M11.6742 4.65039H4.32422V2.25039C4.32422 1.73789 4.73672 1.32539 5.24922 1.32539H6.19922C6.53672 0.650391 7.23672 0.212891 8.01172 0.212891C8.78672 0.212891 9.48672 0.650391 9.82422 1.32539H10.7742C11.2867 1.32539 11.6992 1.73789 11.6992 2.25039L11.6742 4.65039ZM5.06172 3.91289H10.9492V2.25039C10.9492 2.15039 10.8617 2.06289 10.7617 2.06289H9.29922L9.21172 1.81289C9.03672 1.30039 8.54922 0.950391 7.99922 0.950391C7.44922 0.950391 6.96172 1.30039 6.78672 1.81289L6.69922 2.06289H5.23672C5.13672 2.06289 5.04922 2.15039 5.04922 2.25039V3.91289H5.06172Z" fill="#656F77"/>
</svg>
