<svg width="24" height="24" viewBox="0 0 24 24" fill="none" xmlns="http://www.w3.org/2000/svg">
<path fill-rule="evenodd" clip-rule="evenodd" d="M8.00125 5C8.00125 3.89543 8.89668 3 10.0012 3H14.0012C15.1058 3 16.0012 3.89543 16.0012 5V7H17.8492C18.8082 7 19.6321 7.68062 19.8132 8.62231L21.544 17.6223C21.7812 18.8558 20.836 20 19.58 20H4.42251C3.16646 20 2.22129 18.8558 2.4585 17.6223L4.18927 8.62231C4.37036 7.68063 5.19434 7 6.15328 7H8.00125V5ZM14.0013 5H10.0013V7H14.0013V5ZM6.00125 10H8.00125V13H6.00125V10ZM18.0013 10H16.0013V13H18.0013V10Z" fill="black"/>
</svg>
