<svg width="25" height="24" viewBox="0 0 25 24" fill="none" xmlns="http://www.w3.org/2000/svg">
<g clip-path="url(#clip0_1020_8541)">
<path d="M19.3359 3H15.1559C14.7359 1.84 13.6359 1 12.3359 1C11.0359 1 9.93594 1.84 9.51594 3H5.33594C4.23594 3 3.33594 3.9 3.33594 5V19C3.33594 20.1 4.23594 21 5.33594 21H19.3359C20.4359 21 21.3359 20.1 21.3359 19V5C21.3359 3.9 20.4359 3 19.3359 3ZM12.3359 3C12.8859 3 13.3359 3.45 13.3359 4C13.3359 4.55 12.8859 5 12.3359 5C11.7859 5 11.3359 4.55 11.3359 4C11.3359 3.45 11.7859 3 12.3359 3ZM14.3359 17H7.33594V15H14.3359V17ZM17.3359 13H7.33594V11H17.3359V13ZM17.3359 9H7.33594V7H17.3359V9Z" fill="white"/>
</g>
<defs>
<clipPath id="clip0_1020_8541">
<rect width="24" height="24" fill="white" transform="translate(0.335938)"/>
</clipPath>
</defs>
</svg>
