<svg width="16" height="16" viewBox="0 0 16 16" fill="none" xmlns="http://www.w3.org/2000/svg">
<g clip-path="url(#clip0_1025_9994)">
<path d="M12.7925 2.64545C13.5181 2.64545 14.1064 2.05718 14.1064 1.33152C14.1064 0.605848 13.5181 0.0175781 12.7925 0.0175781C12.0668 0.0175781 11.4785 0.605848 11.4785 1.33152C11.4785 2.05718 12.0668 2.64545 12.7925 2.64545Z" fill="#656F77"/>
<path d="M14.4573 8.28898L13.176 8.71239C12.5375 8.92342 11.8485 8.57692 11.6374 7.93814C11.473 7.44064 11.6471 6.91273 12.0339 6.60392L11.7691 5.48711C11.735 5.34361 11.8238 5.19967 11.9673 5.16564L12.5005 5.03917C12.4208 4.83486 11.8126 3.27508 11.7305 3.06445H11.0868C10.2827 3.06445 9.70666 3.68261 9.58784 4.50045L9.31025 6.19117L8.33203 7.40923L8.34728 7.42317C8.77297 7.81264 8.84703 8.44248 8.55244 8.91505C8.69606 8.88814 8.83128 8.81258 8.92997 8.6897L10.4032 6.85523C10.4716 6.77008 10.5168 6.6687 10.5345 6.56095C10.7327 5.35564 10.8404 4.6333 10.8544 4.56364V4.56358C10.8669 4.50127 10.9246 4.45855 10.9879 4.46486C11.0512 4.47117 11.0993 4.52442 11.0993 4.58802L11.0995 15.2212C11.0995 15.6414 11.4402 15.982 11.8603 15.982C12.2805 15.982 12.6211 15.6414 12.6211 15.2212V9.14014H12.9495V15.2212C12.9495 15.6414 13.2902 15.982 13.7103 15.982C14.1305 15.982 14.4711 15.6414 14.4711 15.2212C14.4711 9.17161 14.4573 8.29992 14.4573 8.28898Z" fill="#656F77"/>
<path d="M13.2119 4.06541L12.9574 3.60262L13.1836 3.19116C13.2173 3.12991 13.1729 3.05469 13.1029 3.05469H12.482C12.4121 3.05469 12.3676 3.12981 12.4013 3.19116L12.6276 3.60262L12.3722 4.06716C12.3425 4.12094 12.3329 4.18356 12.3448 4.24384L12.5027 5.039L13.1002 4.89731L13.2385 4.24553C13.2515 4.18428 13.242 4.12031 13.2119 4.06541Z" fill="#656F77"/>
<path d="M3.36472 2.64545C4.09039 2.64545 4.67866 2.05718 4.67866 1.33152C4.67866 0.605848 4.09039 0.0175781 3.36472 0.0175781C2.63905 0.0175781 2.05078 0.605848 2.05078 1.33152C2.05078 2.05718 2.63905 2.64545 3.36472 2.64545Z" fill="#656F77"/>
<path d="M7.97822 7.82505L6.57241 6.53873C6.57053 6.16642 6.56434 4.92945 6.56247 4.55727C6.55831 3.73414 5.88531 3.06445 5.06216 3.06445C4.70928 3.06445 2.01203 3.06445 1.65859 3.06445C0.835438 3.06445 0.162406 3.73414 0.158281 4.55727L0.134844 9.21495C0.133687 9.43998 0.250688 9.63845 0.427875 9.75202V10.2792H0.262C0.117312 10.2792 0 10.3965 0 10.5412V13.1258C0 13.2705 0.117312 13.3878 0.262 13.3878H1.24759C1.39228 13.3878 1.50959 13.2705 1.50959 13.1258V10.5412C1.50959 10.3965 1.39228 10.2792 1.24759 10.2792H1.07875V9.77086C1.26969 9.66358 1.41334 9.45798 1.41453 9.22133C1.41453 4.23361 1.41306 4.54314 1.41731 4.50539C1.42488 4.43827 1.48353 4.3887 1.55097 4.39255C1.61841 4.39636 1.67103 4.45223 1.67103 4.51977L1.67131 9.84592C1.90547 9.98914 2.06206 10.2472 2.06206 10.5412V13.1258C2.06206 13.4198 1.90547 13.6779 1.67131 13.8211V15.2212C1.67131 15.6414 2.01191 15.982 2.43209 15.982C2.85228 15.982 3.19287 15.6414 3.19287 15.2212V9.14017H3.50756V15.2212C3.50756 15.6414 3.84816 15.982 4.26834 15.982C4.68853 15.982 5.02913 15.6414 5.02913 15.2212C5.02913 14.8805 5.02913 5.65855 5.02913 4.4888C5.02913 4.42164 5.08359 4.36717 5.15075 4.36717C5.23369 4.36717 5.30097 4.43433 5.30116 4.51727L5.30584 6.82245C5.30672 6.99927 5.38137 7.16764 5.51184 7.28702L7.12231 8.76055C7.38056 8.99686 7.78159 8.97917 8.018 8.72077C8.25437 8.46239 8.23656 8.06139 7.97822 7.82505Z" fill="#656F77"/>
<path d="M15.9888 4.5573C15.9847 3.73414 15.3117 3.06445 14.4885 3.06445H13.8387C13.7603 3.26942 13.2257 4.66589 13.1412 4.88677L13.2904 4.85139C13.4339 4.81736 13.5779 4.90608 13.6119 5.04961L13.8215 5.93317L14.4556 5.72361V4.55502C14.4556 4.48173 14.515 4.4223 14.5883 4.4223C14.6616 4.4223 14.721 4.4817 14.721 4.55498C14.721 4.55783 14.721 4.56073 14.7209 4.56361C14.7249 5.36098 14.7256 5.49858 14.7294 6.24811L13.9567 6.50342L12.5932 6.95402C12.2612 7.0637 12.0808 7.42411 12.1901 7.75492C12.3 8.0873 12.6585 8.26783 12.9911 8.15795L15.5646 7.30751C15.8254 7.22133 16.0011 6.97705 15.9996 6.70239C15.9986 6.48761 15.99 4.7887 15.9888 4.5573Z" fill="#656F77"/>
</g>
<defs>
<clipPath id="clip0_1025_9994">
<rect width="16" height="16" fill="white"/>
</clipPath>
</defs>
</svg>
