<svg width="24" height="24" viewBox="0 0 24 24" fill="none" xmlns="http://www.w3.org/2000/svg">
<path d="M19.1421 12.9404C19.1821 12.6404 19.2021 12.3304 19.2021 12.0004C19.2021 11.6804 19.1821 11.3604 19.1321 11.0604L21.1621 9.48039C21.3421 9.34039 21.3921 9.07039 21.2821 8.87039L19.3621 5.55039C19.2421 5.33039 18.9921 5.26039 18.7721 5.33039L16.3821 6.29039C15.8821 5.91039 15.3521 5.59039 14.7621 5.35039L14.4021 2.81039C14.3621 2.57039 14.1621 2.40039 13.9221 2.40039H10.0821C9.84206 2.40039 9.65206 2.57039 9.61206 2.81039L9.25206 5.35039C8.66206 5.59039 8.12206 5.92039 7.63206 6.29039L5.24206 5.33039C5.02206 5.25039 4.77206 5.33039 4.65206 5.55039L2.74206 8.87039C2.62206 9.08039 2.66206 9.34039 2.86206 9.48039L4.89206 11.0604C4.84206 11.3604 4.80206 11.6904 4.80206 12.0004C4.80206 12.3104 4.82206 12.6404 4.87206 12.9404L2.84206 14.5204C2.66206 14.6604 2.61206 14.9304 2.72206 15.1304L4.64206 18.4504C4.76206 18.6704 5.01206 18.7404 5.23206 18.6704L7.62206 17.7104C8.12206 18.0904 8.65206 18.4104 9.24206 18.6504L9.60206 21.1904C9.65206 21.4304 9.84206 21.6004 10.0821 21.6004H13.9221C14.1621 21.6004 14.3621 21.4304 14.3921 21.1904L14.7521 18.6504C15.3421 18.4104 15.8821 18.0904 16.3721 17.7104L18.7621 18.6704C18.9821 18.7504 19.2321 18.6704 19.3521 18.4504L21.2721 15.1304C21.3921 14.9104 21.3421 14.6604 21.1521 14.5204L19.1421 12.9404ZM12.0021 15.6004C10.0221 15.6004 8.40206 13.9804 8.40206 12.0004C8.40206 10.0204 10.0221 8.40039 12.0021 8.40039C13.9821 8.40039 15.6021 10.0204 15.6021 12.0004C15.6021 13.9804 13.9821 15.6004 12.0021 15.6004Z" fill="#323232"/>
</svg>
