<svg width="20" height="19" viewBox="0 0 20 19" fill="none" xmlns="http://www.w3.org/2000/svg">
<path fill-rule="evenodd" clip-rule="evenodd" d="M0.173698 8.57053C0.173698 3.71916 4.70714 0 10.0151 0C15.323 0 19.8564 3.71916 19.8564 8.57053C19.8564 13.4219 15.323 17.1411 10.0151 17.1411C8.83808 17.1411 7.70675 16.9612 6.65677 16.6297C5.41834 17.7856 3.61893 18.3412 1.41777 18.4276C0.521109 18.4629 -0.126081 17.5302 0.24937 16.6954C0.782003 15.5028 1.4702 14.1356 1.55181 12.9431C0.680237 11.6739 0.173698 10.1761 0.173698 8.57053ZM10.0151 1.71429C5.39928 1.71429 1.88798 4.90192 1.88798 8.57053C1.88798 9.88792 2.3291 11.1238 3.10672 12.1711C3.21645 12.3188 3.2757 12.498 3.2757 12.6821C3.2757 14.0824 2.71747 15.4037 2.14905 16.6576C3.91139 16.4704 5.06754 15.9061 5.7647 15.0857C5.99884 14.8102 6.38071 14.7112 6.71921 14.8383C7.72396 15.2157 8.83852 15.4268 10.0151 15.4268C14.6308 15.4268 18.1421 12.2391 18.1421 8.57053C18.1421 4.90192 14.6308 1.71429 10.0151 1.71429Z" fill="#1D1B20"/>
</svg>
