<svg width="22" height="22" viewBox="0 0 22 22" fill="none" xmlns="http://www.w3.org/2000/svg">
<g id="Iconsax/Linear/microphone">
<path id="Vector" d="M11 17.4168C14.0342 17.4168 16.5 14.951 16.5 11.9168V7.3335C16.5 4.29933 14.0342 1.8335 11 1.8335C7.96583 1.8335 5.5 4.29933 5.5 7.3335V11.9168C5.5 14.951 7.96583 17.4168 11 17.4168Z" stroke="#704D33" stroke-width="1.5" stroke-linecap="round" stroke-linejoin="round"/>
<path id="Vector_2" d="M2.75 9.51095V11.3443C2.75 13.5323 3.61919 15.6307 5.16637 17.1779C6.71354 18.7251 8.81196 19.5943 11 19.5943C13.188 19.5943 15.2865 18.7251 16.8336 17.1779C18.3808 15.6307 19.25 13.5323 19.25 11.3443V9.51095M8.35083 6.28429C9.97857 5.68844 11.7648 5.68844 13.3925 6.28429M9.19417 9.03429C10.2942 8.73179 11.4583 8.73179 12.5583 9.03429" stroke="#704D33" stroke-width="1.5" stroke-linecap="round" stroke-linejoin="round"/>
</g>
</svg>
