<svg width="33" height="40" viewBox="0 0 33 40" fill="none" xmlns="http://www.w3.org/2000/svg">
<path d="M21.0547 23.9007L23.2599 24.5951C24.5973 25.0161 25.5 26.1992 25.5 27.5325V28.5877C25.5 29.3043 24.936 29.9078 24.124 30H9.87597L9.8143 29.9964C9.06403 29.9078 8.5 29.3043 8.5 28.5877V27.5325C8.5 26.1992 9.40275 25.0161 10.7401 24.5951L12.9453 23.9007C13.8102 23.6284 14.4123 22.8987 14.4912 22.0544L13.9382 21.532C13.6984 21.3055 13.5095 21.0352 13.3828 20.7373L12.8334 19.445C12.3407 18.286 12.1654 17.0271 12.324 15.7862L12.5166 14.3087C12.5166 12.4807 14.0842 11 16.0166 11H17.9834C19.9158 11 21.4834 12.4807 21.4799 14.2525L21.6838 15.8795C21.837 17.1019 21.6585 18.3413 21.1651 19.4797L20.6158 20.7473C20.4892 21.0394 20.3025 21.3046 20.0667 21.5274L19.5088 22.0544C19.5877 22.8987 20.1898 23.6284 21.0547 23.9007Z" fill="#ACB8C2"/>
</svg>
