<svg width="25" height="24" viewBox="0 0 25 24" fill="none" xmlns="http://www.w3.org/2000/svg">
<path d="M5.67021 20H3.5C1.84315 20 0.5 18.6569 0.5 17V10.0202C0.5 8.79789 1.05885 7.64268 2.01719 6.884L7.60925 2.45695C9.42781 1.01725 11.9977 1.01725 13.8163 2.45695L19.4083 6.884C20.3667 7.64268 20.9255 8.79789 20.9255 10.0202V17C20.9255 18.6569 19.5824 20 17.9255 20H15.7553C14.0985 20 12.7553 18.6569 12.7553 17V13.5877C12.7553 13.0604 12.5514 12.5535 12.1862 12.1732C11.3824 11.3358 10.0432 11.3358 9.23929 12.1732C8.87413 12.5535 8.67021 13.0604 8.67021 13.5877V17C8.67021 18.6569 7.32707 20 5.67021 20Z" fill="black"/>
</svg>
