<svg width="16" height="16" viewBox="0 0 16 16" fill="none" xmlns="http://www.w3.org/2000/svg">
<path d="M15.9687 14.3099L14.6667 2.05995C14.6667 1.2898 14.07 0.666016 13.3333 0.666016H8H2.66667C1.93 0.666016 1.33333 1.2898 1.33333 2.05995L0.0313333 14.3099C0.012 14.4054 0 14.5037 0 14.6054C0 15.3756 0.596667 15.9993 1.33333 15.9993H8H14.6667C15.4033 15.9993 16 15.3756 16 14.6054C16 14.5037 15.988 14.4054 15.9687 14.3099ZM11.3333 4.08674V4.84783C11.3333 6.76938 9.838 8.33268 8 8.33268C6.162 8.33268 4.66667 6.76938 4.66667 4.84783V4.08674C4.27933 3.94317 4 3.55983 4 3.10541C4 2.52832 4.448 2.05995 5 2.05995C5.552 2.05995 6 2.52832 6 3.10541V4.84783C6 6.00062 6.89733 6.93874 8 6.93874C9.10267 6.93874 10 6.00062 10 4.84783V3.10541C10 2.52832 10.448 2.05995 11 2.05995C11.552 2.05995 12 2.52832 12 3.10541C12 3.55983 11.7207 3.94317 11.3333 4.08674Z" fill="#303030"/>
</svg>
