<svg width="24" height="24" viewBox="0 0 24 24" fill="none" xmlns="http://www.w3.org/2000/svg">
<g clip-path="url(#clip0_1020_8558)">
<path d="M21.8985 8.89L20.8485 4.52C20.6285 3.62 19.8485 3 18.9385 3H5.04854C4.14854 3 3.35854 3.63 3.14854 4.52L2.09854 8.89C1.85854 9.91 2.07854 10.95 2.71854 11.77C2.79854 11.88 2.90854 11.96 2.99854 12.06V19C2.99854 20.1 3.89854 21 4.99854 21H18.9985C20.0985 21 20.9985 20.1 20.9985 19V12.06C21.0885 11.97 21.1985 11.88 21.2785 11.78C21.9185 10.96 22.1485 9.91 21.8985 8.89ZM18.9085 4.99L19.9585 9.36C20.0585 9.78 19.9685 10.2 19.7085 10.53C19.5685 10.71 19.2685 11 18.7685 11C18.1585 11 17.6285 10.51 17.5585 9.86L16.9785 5L18.9085 4.99ZM12.9985 5H14.9585L15.4985 9.52C15.5485 9.91 15.4285 10.3 15.1685 10.59C14.9485 10.85 14.6285 11 14.2185 11C13.5485 11 12.9985 10.41 12.9985 9.69V5ZM8.48854 9.52L9.03854 5H10.9985V9.69C10.9985 10.41 10.4485 11 9.70854 11C9.36854 11 9.05854 10.85 8.81854 10.59C8.56854 10.3 8.44854 9.91 8.48854 9.52ZM4.03854 9.36L5.04854 5H7.01854L6.43854 9.86C6.35854 10.51 5.83854 11 5.22854 11C4.73854 11 4.42854 10.71 4.29854 10.53C4.02854 10.21 3.93854 9.78 4.03854 9.36ZM4.99854 19V12.97C5.07854 12.98 5.14854 13 5.22854 13C6.09854 13 6.88854 12.64 7.46854 12.05C8.06854 12.65 8.86854 13 9.77854 13C10.6485 13 11.4285 12.64 12.0085 12.07C12.5985 12.64 13.3985 13 14.2985 13C15.1385 13 15.9385 12.65 16.5385 12.05C17.1185 12.64 17.9085 13 18.7785 13C18.8585 13 18.9285 12.98 19.0085 12.97V19H4.99854Z" fill="#323232"/>
</g>
<defs>
<clipPath id="clip0_1020_8558">
<rect width="24" height="24" fill="white"/>
</clipPath>
</defs>
</svg>
