<svg width="20" height="17" viewBox="0 0 20 17" fill="none" xmlns="http://www.w3.org/2000/svg">
<path fill-rule="evenodd" clip-rule="evenodd" d="M6.00125 2C6.00125 0.895431 6.89668 0 8.00125 0H12.0012C13.1058 0 14.0012 0.895431 14.0012 2V4H15.8492C16.8082 4 17.6321 4.68062 17.8132 5.62231L19.544 14.6223C19.7812 15.8558 18.836 17 17.58 17H2.42251C1.16646 17 0.221295 15.8558 0.458497 14.6223L2.18927 5.62231C2.37036 4.68063 3.19434 4 4.15328 4H6.00125V2ZM12.0013 2H8.00125V4H12.0013V2ZM4.00125 7H6.00125V10H4.00125V7ZM16.0013 7H14.0013V10H16.0013V7Z" fill="black"/>
</svg>
