<svg width="22" height="19" viewBox="0 0 22 19" fill="none" xmlns="http://www.w3.org/2000/svg">
<path fill-rule="evenodd" clip-rule="evenodd" d="M3.5 5.49925C2.67157 5.49925 2 6.17082 2 6.99925V15.9993C2 16.8277 2.67157 17.4993 3.5 17.4993H18.5C19.3284 17.4993 20 16.8277 20 15.9993V6.99925C20 6.17082 19.3284 5.49925 18.5 5.49925H3.5ZM0.5 6.99925C0.5 5.34239 1.84315 3.99925 3.5 3.99925H18.5C20.1568 3.99925 21.5 5.34239 21.5 6.99925V15.9993C21.5 17.6561 20.1568 18.9993 18.5 18.9993H3.5C1.84315 18.9993 0.5 17.6561 0.5 15.9993V6.99925Z" fill="black"/>
<path fill-rule="evenodd" clip-rule="evenodd" d="M15.3672 0.303257C15.812 0.219632 16.2698 0.234633 16.7083 0.347241C17.1493 0.460488 17.5598 0.669662 17.9106 0.95984C18.2614 1.25002 18.5439 1.61404 18.7378 2.02595C18.9317 2.43786 19.0323 2.88748 19.0325 3.34276V4.74925H17.5325V3.343C17.5324 3.10854 17.4805 2.877 17.3807 2.66488C17.2808 2.45269 17.1353 2.26516 16.9546 2.11568C16.7738 1.96619 16.5623 1.85843 16.3352 1.80009C16.108 1.74175 15.8708 1.73427 15.6404 1.77818C15.6357 1.77908 15.6309 1.77993 15.6262 1.78074L3.289 3.88644C2.927 3.95696 2.60059 4.15086 2.36549 4.43519C2.12901 4.72119 1.99975 5.08076 2 5.45186L2 7.74925H0.5V5.45237C0.49963 4.73217 0.750541 4.03439 1.20949 3.47934C1.66854 2.92416 2.30695 2.54658 3.0146 2.41172C3.01933 2.41082 3.02407 2.40997 3.02882 2.40916L15.3672 0.303257Z" fill="black"/>
<path d="M16.25 12.9993C15.9533 12.9993 15.6633 12.9113 15.4166 12.7465C15.17 12.5816 14.9777 12.3474 14.8642 12.0733C14.7506 11.7992 14.7209 11.4976 14.7788 11.2066C14.8367 10.9156 14.9796 10.6484 15.1893 10.4386C15.3991 10.2288 15.6664 10.0859 15.9574 10.0281C16.2483 9.97019 16.5499 9.9999 16.824 10.1134C17.0981 10.227 17.3324 10.4192 17.4972 10.6659C17.662 10.9126 17.75 11.2026 17.75 11.4992C17.75 11.8971 17.592 12.2786 17.3107 12.5599C17.0293 12.8412 16.6478 12.9993 16.25 12.9993Z" fill="black"/>
</svg>
