<svg width="20" height="20" viewBox="0 0 20 20" fill="none" xmlns="http://www.w3.org/2000/svg">
<path fill-rule="evenodd" clip-rule="evenodd" d="M10 9.29412C10.3898 9.29412 10.7059 9.61015 10.7059 10V13.7647C10.7059 14.1546 10.3898 14.4706 10 14.4706C9.61015 14.4706 9.29412 14.1546 9.29412 13.7647V10C9.29412 9.61015 9.61015 9.29412 10 9.29412Z" fill="#667085"/>
<path d="M10.9412 7.17647C10.9412 7.69627 10.5198 8.11765 10 8.11765C9.4802 8.11765 9.05882 7.69627 9.05882 7.17647C9.05882 6.65667 9.4802 6.23529 10 6.23529C10.5198 6.23529 10.9412 6.65667 10.9412 7.17647Z" fill="#667085"/>
<path fill-rule="evenodd" clip-rule="evenodd" d="M4.34315 4.34315C5.79009 2.8962 7.79106 2 10 2C12.2089 2 14.2099 2.8962 15.6569 4.34315C17.1038 5.79009 18 7.79106 18 10C18 12.2089 17.1038 14.2099 15.6569 15.6569C14.2099 17.1038 12.2089 18 10 18C7.79106 18 5.79009 17.1038 4.34315 15.6569C2.8962 14.2099 2 12.2089 2 10C2 7.79106 2.8962 5.79009 4.34315 4.34315ZM10 3.41176C8.18051 3.41176 6.53442 4.14841 5.34141 5.34141C4.14841 6.53442 3.41176 8.18051 3.41176 10C3.41176 11.8195 4.14841 13.4656 5.34141 14.6586C6.53442 15.8516 8.18051 16.5882 10 16.5882C11.8195 16.5882 13.4656 15.8516 14.6586 14.6586C15.8516 13.4656 16.5882 11.8195 16.5882 10C16.5882 8.18051 15.8516 6.53442 14.6586 5.34141C13.4656 4.14841 11.8195 3.41176 10 3.41176Z" fill="#667085"/>
</svg>
