<svg width="24" height="29" viewBox="0 0 24 29" fill="none" xmlns="http://www.w3.org/2000/svg">
<path fill-rule="evenodd" clip-rule="evenodd" d="M17.9046 0.577365C17.9046 2.04855 17.2548 3.51973 16.3377 4.58124C15.3631 5.75454 13.6817 6.62978 12.344 6.62996C12.1912 6.62996 12.0382 6.61121 11.9427 6.59264C11.9236 6.51817 11.8853 6.29458 11.8853 6.07117C11.8853 4.58124 12.6689 3.11005 13.5096 2.17891C14.5797 0.968466 16.3568 0.0558973 17.8473 0C17.8856 0.167692 17.9046 0.372529 17.9046 0.577365ZM23.1613 9.84461C23.1985 9.82086 23.2239 9.80456 23.2358 9.79555C21.2486 7.02088 18.2293 6.94623 17.3884 6.94605C16.1036 6.94605 14.9536 7.39032 13.9868 7.76382C13.2857 8.03466 12.6809 8.2683 12.191 8.2683C11.6505 8.2683 11.0315 8.02453 10.3409 7.75248C9.46888 7.40904 8.48247 7.02052 7.39485 7.02052C3.7262 7.02052 0 9.98164 0 15.5685C0 19.0509 1.37577 22.7196 3.07643 25.0847C4.54766 27.096 5.82796 28.7348 7.66239 28.7348C8.53233 28.7348 9.17022 28.471 9.84098 28.1935C10.5846 27.8859 11.3687 27.5615 12.5542 27.5615C13.7512 27.5615 14.4668 27.866 15.1571 28.1597C15.8001 28.4333 16.421 28.6975 17.3886 28.6975C19.3949 28.6975 20.7135 26.9284 21.9746 25.1592C23.3886 23.148 23.9811 21.1739 24.0001 21.0809C23.8854 21.0437 20.0447 19.5352 20.0447 15.2706C20.0447 11.8381 22.661 10.1646 23.1613 9.84461Z" fill="white"/>
</svg>
