<svg width="20" height="14" viewBox="0 0 20 14" fill="none" xmlns="http://www.w3.org/2000/svg">
<path d="M17.2504 13.8584C17.4487 14 17.7178 13.9433 17.8735 13.7238C19.1624 11.8685 19.9342 9.53869 19.9342 7.00354C19.9342 4.46839 19.1624 2.13151 17.8735 0.283257C17.7178 0.0566515 17.4487 0 17.2504 0.141629C17.045 0.290339 17.0096 0.559433 17.1654 0.786039C18.3126 2.51391 19.0632 4.6525 19.0632 7.00354C19.0632 9.35458 18.3763 11.5498 17.1583 13.221C17.0025 13.4476 17.0379 13.7097 17.2504 13.8584ZM7.7825 13.3202C8.2003 13.3202 8.47648 13.0157 8.47648 12.605V1.34547C8.47648 0.93475 8.2003 0.601922 7.77542 0.601922C7.478 0.601922 7.26555 0.736469 6.97521 1.01265L3.78149 4.07891C3.72484 4.13556 3.65402 4.16388 3.56196 4.16388H1.38796C0.524026 4.16388 0 4.68791 0 5.59433V8.37734C0 9.27668 0.524026 9.80779 1.38796 9.80779H3.56196C3.65402 9.80779 3.72484 9.82903 3.78149 9.88569L6.97521 12.9378C7.24431 13.1856 7.48508 13.3202 7.7825 13.3202ZM14.4249 11.9393C14.6373 12.0809 14.8923 12.0243 15.0481 11.8118C15.997 10.523 16.5281 8.82347 16.5281 7.00354C16.5281 5.17653 16.004 3.47699 15.0481 2.18816C14.8852 1.97572 14.6373 1.91907 14.4249 2.06778C14.2124 2.20941 14.1841 2.47142 14.347 2.70511C15.133 3.88771 15.6571 5.36773 15.6571 7.00354C15.6571 8.63935 15.1755 10.1619 14.3399 11.302C14.1841 11.5286 14.2124 11.7977 14.4249 11.9393ZM11.6206 10.0415C11.8118 10.1689 12.0738 10.1335 12.2296 9.92109C12.782 9.1917 13.129 8.12241 13.129 7.00354C13.129 5.87759 12.782 4.81538 12.2296 4.08599C12.0738 3.87355 11.8189 3.83106 11.6206 3.9656C11.394 4.1214 11.3586 4.39757 11.5357 4.63126C11.9676 5.21902 12.258 6.09004 12.258 7.00354C12.258 7.92413 11.9605 8.79514 11.5215 9.38998C11.3586 9.61659 11.394 9.8786 11.6206 10.0415Z" fill="white"/>
</svg>
