<svg width="39" height="12" viewBox="0 0 39 12" fill="none" xmlns="http://www.w3.org/2000/svg">
<path d="M38.4352 3.54303C38.0851 2.54866 37.132 1.83426 36.0136 1.83426H35.9941C35.2647 1.83426 34.6131 2.13354 34.1463 2.61624C33.6795 2.13354 33.0181 1.83426 32.2984 1.83426H32.279C31.6371 1.83426 31.0536 2.06596 30.6062 2.45212V2.25904C30.5867 2.06596 30.4311 1.91149 30.2269 1.91149H28.4957C28.2818 1.91149 28.1165 2.07561 28.1165 2.288V11.5559C28.1165 11.7683 28.2818 11.9324 28.4957 11.9324H30.2172C30.4117 11.9324 30.5673 11.7876 30.5867 11.6042V4.95252C30.5867 4.93321 30.5867 4.90425 30.5867 4.88494C30.6159 4.58567 30.8299 4.34432 31.18 4.31535H31.2481H31.4329H31.5009C31.6468 4.32501 31.7635 4.38293 31.8608 4.45051C32.0067 4.56636 32.0942 4.74979 32.0942 4.95252L32.1039 11.5752C32.1039 11.7876 32.279 11.9517 32.4832 11.9517H34.2046C34.4089 11.9517 34.5742 11.7876 34.5839 11.5945V4.95252C34.5839 4.73048 34.6812 4.5374 34.866 4.42155C34.9535 4.36362 35.0605 4.32501 35.1869 4.31535H35.255H35.4398H35.5079C35.8774 4.34432 36.1011 4.62428 36.1011 4.95252L36.1108 11.5656C36.1108 11.7779 36.2859 11.9421 36.4901 11.9421H38.2115C38.4255 11.9421 38.5908 11.7779 38.5908 11.5656V4.44086C38.5714 3.95815 38.513 3.75542 38.4352 3.54303Z" fill="#17BAED"/>
<path d="M26.8035 1.93081H25.8212V0.347546C25.8212 0.154465 25.6656 0 25.4711 0C25.4517 0 25.4225 0 25.403 0.00965406C24.3138 0.30893 24.5277 1.80531 22.5437 1.93081H22.4951H22.3492C22.3201 1.93081 22.2909 1.93081 22.2617 1.94047C22.0964 1.97908 21.9602 2.12389 21.9602 2.30732V4.01609C21.9602 4.22848 22.1353 4.3926 22.3395 4.3926H23.3801V11.6235C23.3801 11.8262 23.5455 12 23.7594 12H25.4614C25.6656 12 25.8407 11.8359 25.8407 11.6235V4.3926H26.8035C27.0175 4.3926 27.1828 4.21882 27.1828 4.01609V2.30732C27.1828 2.09493 27.0078 1.93081 26.8035 1.93081Z" fill="#17BAED"/>
<path d="M20.6181 1.93082H18.8967C18.6827 1.93082 18.5174 2.10459 18.5174 2.30732V5.83106C18.5174 6.0531 18.3326 6.22687 18.1187 6.22687H17.399C17.1753 6.22687 17.0002 6.0531 17.0002 5.83106L16.9905 2.30732C16.9905 2.09494 16.8154 1.93082 16.6112 1.93082H14.8898C14.6758 1.93082 14.5105 2.10459 14.5105 2.30732V6.1786C14.5105 7.64602 15.5609 8.69831 17.0489 8.69831C17.0489 8.69831 18.1576 8.69831 18.1965 8.70797C18.4007 8.72727 18.5563 8.90105 18.5563 9.10378C18.5563 9.30652 18.4007 9.47064 18.2062 9.4996C18.1965 9.4996 18.1867 9.4996 18.177 9.50925L15.6678 9.51891C15.4539 9.51891 15.2885 9.69268 15.2885 9.89542V11.5849C15.2885 11.7973 15.4539 11.9614 15.6678 11.9614H18.4785C19.9568 11.9614 21.0169 10.9187 21.0169 9.44168V2.30732C20.9974 2.09494 20.8321 1.93082 20.6181 1.93082Z" fill="#223368"/>
<path d="M4.13335 1.93082H0.36957C0.165334 1.93082 0 2.09494 0 2.29767V3.96782V3.97748C0 3.98713 0 3.99679 0 3.99679V9.36444V11.5656C0 11.7683 0.155608 11.9421 0.350119 11.9421H0.379295H2.10071C2.31467 11.9421 2.48001 11.778 2.48001 11.5656L2.48973 8.97828H4.13335C5.51437 8.97828 6.46747 8.03218 6.46747 6.66131V4.25745C6.46747 2.87691 5.50465 1.93082 4.13335 1.93082ZM3.97774 5.05873V5.85037V6.11102C3.97774 6.33307 3.79295 6.50684 3.57899 6.50684H2.48973V4.40226H3.57899C3.80268 4.40226 3.97774 4.57603 3.97774 4.79807V5.05873Z" fill="#223368"/>
<path d="M10.8343 1.94049H8.45158C8.23762 1.94049 8.07229 2.09496 8.07229 2.29769V2.96382V2.97348V2.98313V3.89061C8.07229 4.09335 8.25707 4.26712 8.48076 4.26712H10.7565C10.9316 4.29608 11.0775 4.42159 11.0969 4.62432V4.84636C11.0775 5.03944 10.9316 5.18426 10.7663 5.19391H9.62837C8.13064 5.19391 7.07056 6.17862 7.07056 7.56881V9.49962V9.55755C7.07056 10.9381 7.98476 11.9131 9.47276 11.9131H12.5849C13.149 11.9131 13.5964 11.4884 13.5964 10.9767V4.49882C13.6061 2.93486 12.7892 1.94049 10.8343 1.94049ZM11.1067 9.06519V9.3355C11.1067 9.35481 11.1067 9.37412 11.0969 9.39343C11.0969 9.41274 11.0872 9.43204 11.0775 9.45135C11.0288 9.59616 10.8732 9.71201 10.6982 9.71201H9.97849C9.7548 9.71201 9.57002 9.54789 9.57002 9.3355V9.01692V9.00727V8.14805V8.05151V7.87774C9.57002 7.675 9.7548 7.50123 9.97849 7.50123H10.6982C10.9219 7.50123 11.1067 7.66535 11.1067 7.87774V9.06519Z" fill="#223368"/>
</svg>
