<svg width="48" height="47" viewBox="0 0 48 47" fill="none" xmlns="http://www.w3.org/2000/svg">
<path fill-rule="evenodd" clip-rule="evenodd" d="M23.9998 0L25.2681 2.95559L28.4476 3.17995L26.0725 5.278L27.143 8.08061C28.5088 6.68212 30.3825 5.86185 32.6194 5.62496C31.772 6.88323 31.0885 8.24449 30.5856 9.67576C31.8747 8.63908 33.456 8.0321 35.1077 7.94001C34.0409 9.27881 33.1399 10.7417 32.4242 12.2967C32.3934 12.3785 32.3274 12.442 32.2446 12.4697C32.1825 12.4906 32.1159 12.4896 32.0553 12.4682L31.9971 12.44C27.0835 10.0075 21.3374 9.94668 16.3822 12.2576L16.0026 12.44C15.9285 12.4866 15.8375 12.4975 15.7545 12.4698C15.6715 12.442 15.6054 12.3785 15.5742 12.2967C14.8581 10.7419 13.957 9.27911 12.8906 7.94001C14.5428 8.03212 16.1247 8.63927 17.4143 9.67623C16.9103 8.24512 16.2263 6.88393 15.3788 5.62543C17.4927 5.84916 19.2803 6.59325 20.6241 7.85336L20.8567 8.08108L21.9256 5.27768L19.5519 3.17964L22.7316 2.95559L23.9998 0ZM42.9603 7.85305L43.1256 8.06898C46.0513 11.9226 47.841 16.6918 47.9887 21.8851C46.4845 22.0924 45.4087 21.6013 44.3547 21.0533L43.8684 20.7986L43.3763 20.5499C42.3803 20.0678 41.2964 19.7054 39.805 19.9673C40.1619 20.6101 40.4764 21.2756 40.7465 21.9595C41.9631 21.825 42.8766 22.2122 43.765 22.6769L44.4918 23.0653C45.4685 23.5823 46.5053 24.0474 47.9632 23.8839C47.9319 24.458 47.8811 25.0266 47.8109 25.5896C46.5573 25.7976 45.6751 25.3936 44.8151 24.9102L44.3853 24.6644L43.9495 24.4201C43.2128 24.0224 42.4107 23.6928 41.341 23.7394C41.5071 24.3339 41.6417 24.9368 41.7445 25.5454C42.7015 25.5449 43.4203 25.9172 44.1179 26.3288L44.7458 26.7009C45.5205 27.1466 46.3483 27.5188 47.5181 27.3736C47.3851 28.0297 47.2244 28.6764 47.0361 29.3136C46.1587 29.4002 45.5283 29.0699 44.9041 28.6733L44.3374 28.3079C43.6952 27.9031 42.9868 27.5372 41.9712 27.561C41.9894 27.8943 41.9997 28.2302 41.9997 28.5688C41.9997 28.7567 41.9945 28.9438 41.9894 29.13C42.8282 29.1201 43.4288 29.4408 43.9847 29.809L44.6016 30.2284C45.1513 30.5924 45.729 30.8979 46.5284 30.8618C46.2901 31.5063 46.0253 32.1373 45.7341 32.7549C45.2595 32.7287 44.8932 32.5 44.53 32.2187L43.9744 31.7761C43.443 31.3686 42.8179 31.0034 41.8253 31.07C41.7626 31.518 41.6843 31.9625 41.5882 32.3995C42.4906 32.3363 43.0386 32.7199 43.5223 33.1358L43.9095 33.475C44.2514 33.7679 44.601 34.0181 45.0701 34.0662C44.7419 34.6677 44.3886 35.2523 44.0102 35.8198C43.8301 35.7235 43.6556 35.5815 43.4753 35.4195L43.0547 35.0323C42.5654 34.5889 41.9851 34.1424 41.1326 34.0975C41.281 33.6392 41.4115 33.1735 41.524 32.7004C40.038 32.671 38.6156 32.092 37.5314 31.0754C37.7238 29.976 36.9997 28.8672 36.1992 27.8266L35.5139 26.9532C34.9045 26.1713 34.3961 25.4452 34.3961 24.8125C34.3961 24.1087 34.5347 23.5269 34.7041 22.9351L34.9304 22.1583C35.1316 21.4445 35.3126 20.6437 35.3126 19.5587C35.3126 17.746 34.4326 15.7812 33.107 14.4375C32.8598 14.1852 32.5836 13.9632 32.2841 13.776C33.5028 15.2838 34.4402 17.0729 34.4402 19.1445C34.4402 20.2176 34.2071 21.0542 33.9585 21.857L33.7467 22.5416C33.5412 23.2274 33.3699 23.9309 33.3699 24.7798C33.3699 25.7026 33.9565 26.5712 34.6195 27.438L35.2232 28.2191C35.8863 29.0896 36.4728 29.9739 36.4728 30.9244C36.4728 31.5942 36.3066 32.2516 35.8063 33.2875L35.571 33.7558C35.4854 33.9203 35.3925 34.0938 35.2918 34.2772C36.6853 35.6692 38.5001 36.4282 39.6708 36.4282C40.051 36.4282 40.2553 36.3136 40.3911 36.0142C40.5082 35.7564 40.6193 35.496 40.7244 35.2329C41.4658 35.2621 41.9711 35.6709 42.4036 36.096L42.7776 36.4732C42.939 36.634 43.0966 36.78 43.2609 36.8879C42.8992 37.3743 42.5192 37.8466 42.1214 38.3051C45.7832 34.0919 48 28.5893 48 22.5689C48 17.0232 46.1191 11.9169 42.9603 7.85305ZM19.7733 12.3984C19.8801 12.2654 19.7564 12.13 19.6041 12.2418L19.5025 12.3185C17.8091 13.6274 16.8121 15.6426 16.7992 17.7828C16.7992 19.0671 17.17 20.0633 17.5778 21.0059L17.9856 21.9395C18.3371 22.7689 18.63 23.6178 18.63 24.6511C18.63 25.8351 18.0037 26.7226 17.3251 27.5791L16.7699 28.2782C16.166 29.0593 15.6483 29.8746 15.6483 30.9233C15.6483 32.0177 16.2026 33.0155 16.8292 33.9857L17.3997 34.8533C18.0263 35.8132 18.5806 36.7661 18.5806 37.7811C18.5806 38.6353 18.1318 39.5797 17.6136 40.5729L17.1386 41.4789C16.5077 42.7015 15.9404 43.9767 16.0923 45.233C15.5271 45.0363 14.9725 44.8176 14.4269 44.5807C14.4449 43.3474 15.0192 42.2069 15.6158 41.1147L15.9722 40.4649C16.498 39.4978 16.9555 38.5628 16.9555 37.6275C16.9555 36.5373 16.3717 35.5357 15.7349 34.5479L15.1617 33.6607C14.6029 32.7732 14.13 31.8788 14.13 30.9232C14.13 29.8525 14.7679 28.9801 15.459 28.108L15.8377 27.6311C16.5288 26.7525 17.1667 25.8381 17.1667 24.6899C17.1667 23.6584 16.9111 22.8105 16.6103 21.9913L16.2153 20.9417C15.9146 20.1186 15.6589 19.2577 15.6589 18.2042C15.6589 15.9268 16.4584 14.4244 17.8386 12.7694C17.5417 12.9238 17.2656 13.115 17.0167 13.3386C15.5099 14.6925 14.6363 16.6137 14.6066 18.6393C14.6066 19.8639 14.8734 20.7848 15.167 21.6208L15.4605 22.4366C15.7135 23.1511 15.9243 23.8562 15.9243 24.7056C15.9243 25.5904 15.387 26.3975 14.7601 27.2131L14.1839 27.9517C13.4795 28.8629 12.8294 29.8156 12.8294 30.9244C12.8294 32.0241 13.384 33.049 13.989 34.0321L14.5335 34.9066C15.0644 35.7717 15.5136 36.611 15.5136 37.4489C15.5136 38.1838 15.144 39.0159 14.6955 39.8932L14.3489 40.5587L13.9999 41.2363C13.5452 42.1455 13.1568 43.0736 13.1256 43.9683C12.6543 43.7275 12.1921 43.4724 11.7388 43.2029C11.8123 42.3458 12.2415 41.5619 12.7139 40.7884L13.0713 40.2094C13.605 39.3409 14.0943 38.4659 14.0943 37.4957L14.0819 37.2508C14.025 36.6899 13.783 36.204 13.5482 35.7943L13.449 35.625L13.5101 35.8416C13.8114 37.0649 13.326 38.0721 12.678 39.0288L12.4436 39.3647L11.8867 40.1296C11.3305 40.9005 10.8276 41.6807 10.7194 42.5609C10.1127 42.1573 9.52637 41.7271 8.96031 41.2705C9.22194 40.8186 9.62308 40.2667 10.0775 39.9581C9.86514 39.7041 9.6594 39.4438 9.46291 39.1768C8.92774 39.5011 8.45114 40.1078 8.14394 40.583C7.65559 40.1521 7.1829 39.7015 6.73104 39.2327L6.95201 38.9513L7.1968 38.6479C7.54065 38.2393 7.95762 37.8356 8.48621 37.6925C8.30271 37.3825 8.1287 37.0669 7.9642 36.7457C7.25505 36.9321 6.71924 37.4913 6.29697 37.9759L5.94598 38.3799C5.53985 37.9162 5.15142 37.438 4.78066 36.9453C7.99725 41.2385 12.6187 44.4184 17.9634 45.803C17.7264 44.4627 18.2676 43.1474 18.8926 41.8745L19.473 40.7122C19.9428 39.7545 20.3357 38.8251 20.3357 37.9319C20.3357 36.8014 19.7635 35.7922 19.1166 34.8113L18.5276 33.9336C17.8807 32.9612 17.3084 31.9892 17.3084 30.9243C17.3084 29.9264 17.777 29.1936 18.3323 28.4736L18.9542 27.6811C19.5738 26.8696 20.1314 25.9642 20.1314 24.6378C20.1314 23.5128 19.7163 22.4688 19.255 21.4269L18.9062 20.6446C18.4449 19.5987 18.0297 18.5351 18.0297 17.3748C18.0297 15.2512 18.6366 13.8175 19.7733 12.3984ZM26.394 25.2195C26.2709 25.1257 26.1137 25.089 25.9618 25.1183C25.8787 25.1335 25.7914 25.1558 25.6985 25.1822L25.2397 25.318C24.9035 25.4129 24.5014 25.5024 23.9998 25.5024C23.4983 25.5024 23.0961 25.4129 22.7597 25.318L22.3002 25.1822C22.2072 25.1558 22.1196 25.1335 22.0363 25.1183C21.8846 25.0891 21.7276 25.126 21.6048 25.2198C21.482 25.3135 21.405 25.4551 21.3931 25.6092L21.344 25.9025C21.1852 26.6621 20.812 27.2474 20.4013 27.7887L19.7791 28.5839C19.2741 29.2462 18.8488 29.9415 18.8488 30.9243C18.8488 31.967 19.441 32.9699 20.1105 33.9723L20.7199 34.8755C21.3894 35.8811 21.9816 36.8981 21.9816 37.9659C21.9816 38.7471 21.6477 39.555 21.2321 40.4203L20.8428 41.2154L20.579 41.7651C19.9711 43.0677 19.4505 44.5131 19.7095 46.1858L20.363 46.2949C21.549 46.4752 22.7636 46.5687 24 46.5687C25.6546 46.5687 27.27 46.4012 28.8309 46.0815C28.6509 46.1183 28.4702 46.153 28.2887 46.1858C28.5476 44.5131 28.027 43.0677 27.4192 41.7651L27.1553 41.2154L26.8929 40.6816L26.6441 40.1624C26.287 39.3937 26.0165 38.669 26.0165 37.9659C26.0165 36.8981 26.609 35.8811 27.2787 34.8755L27.8884 33.9723C28.5581 32.9699 29.1506 31.967 29.1506 30.9243C29.1506 29.9415 28.7253 29.2462 28.2203 28.5839L27.7536 27.9899C27.2319 27.3245 26.7343 26.6157 26.6063 25.6092L26.5914 25.5184C26.5615 25.4002 26.4924 25.2945 26.394 25.2195ZM28.2264 12.3996C28.1194 12.2664 28.2433 12.1309 28.3942 12.243L28.4958 12.3198C30.19 13.6281 31.1875 15.6436 31.2003 17.7841C31.2003 19.0684 30.8295 20.0645 30.4217 21.0071L30.0139 21.9406C29.6624 22.77 29.3695 23.619 29.3695 24.6524C29.3695 25.8364 29.9959 26.7238 30.6744 27.5801L31.0463 28.0456C31.7249 28.8994 32.3512 29.7705 32.3512 30.9246C32.3512 32.0194 31.7967 33.0172 31.1698 33.9873L30.5991 34.8548C29.9723 35.8146 29.4177 36.7673 29.4177 37.7824C29.4177 38.5512 29.7814 39.393 30.232 40.2777L30.8601 41.4802C31.4912 42.7028 32.0584 43.9779 31.906 45.2342C32.471 45.0376 33.0258 44.8188 33.5714 44.5819C33.5552 43.472 33.0882 42.4372 32.5597 41.4451L31.8529 40.145C31.403 39.2913 31.0414 38.4601 31.0414 37.6288C31.0414 36.7062 31.4597 35.8469 31.9746 35.0059L32.2631 34.5486L32.6477 33.957C33.2852 32.9717 33.8695 31.9856 33.8695 30.9244C33.8695 29.9517 33.3423 29.1424 32.7273 28.3479L32.1619 27.6328C31.4709 26.7539 30.833 25.8389 30.833 24.6901C30.833 23.658 31.0886 22.81 31.3894 21.9909L31.7844 20.9414C32.0852 20.1185 32.3409 19.2579 32.3409 18.2043C32.3409 15.927 31.5413 14.4245 30.1611 12.7696C30.4575 12.9239 30.7332 13.1151 30.9816 13.3386C32.4888 14.6921 33.3623 16.6137 33.3912 18.6393C33.3912 19.8639 33.1249 20.7847 32.8319 21.6207L32.5389 22.4366C32.2864 23.151 32.076 23.8561 32.076 24.7056C32.076 25.5905 32.6133 26.3976 33.2402 27.2132L33.8165 27.9518C34.5209 28.863 35.1711 29.8156 35.1711 30.9244C35.1711 31.9141 34.722 32.8432 34.1912 33.7359L33.8293 34.3259L33.6468 34.6173L33.294 35.1941C32.8423 35.9583 32.4875 36.7043 32.4875 37.449C32.4875 38.1842 32.857 39.0165 33.3055 39.8937L33.828 40.8967C34.3532 41.9132 34.8403 42.9619 34.8755 43.9685C33.3499 44.7458 31.7297 45.3645 30.037 45.803C30.2553 44.5655 29.8108 43.3494 29.2494 42.1685L28.9616 41.5811L28.5264 40.7118C28.0566 39.7541 27.6636 38.8248 27.6636 37.9319C27.6636 36.8014 28.2357 35.7922 28.8824 34.8114L29.4711 33.9338C30.1178 32.9616 30.6899 31.9899 30.6899 30.9255C30.6899 29.9282 30.2213 29.1954 29.666 28.4754L29.2 27.884C28.5213 27.0191 27.8669 26.076 27.8669 24.6391C27.8669 23.514 28.282 22.4701 28.7433 21.4281L29.0921 20.6458C29.5534 19.5999 29.9685 18.5364 29.9685 17.3761C29.9685 15.2525 29.3617 13.8188 28.2264 12.3996ZM34.4811 35.8777L34.55 35.625L34.452 35.7945C34.1845 36.2627 33.9068 36.8305 33.9068 37.4959C33.9068 38.3583 34.2932 39.1455 34.7537 39.9198L35.2865 40.7887C35.7585 41.5622 36.1875 42.3461 36.261 43.203C35.9877 43.3656 35.7112 43.5229 35.4316 43.6751L34.9128 43.9499C35.0869 43.8602 35.2598 43.7686 35.4316 43.6751L35.5167 43.6301C36.1154 43.302 36.6987 42.9491 37.265 42.5728L37.2817 42.5611L37.2427 42.3234C37.0656 41.4607 36.5246 40.6897 35.9613 39.9197L35.5447 39.3478C34.799 38.3037 34.166 37.2209 34.4811 35.8777ZM40.0369 36.7459C40.6743 36.9136 41.1718 37.3833 41.5732 37.8289L42.0553 38.38C40.8083 39.8036 39.3951 41.0783 37.8464 42.1741L37.7992 42.2066C38.2232 41.9074 38.6367 41.5955 39.0395 41.2706C38.7792 40.8194 38.3782 40.2668 37.9224 39.9582C38.1354 39.7044 38.3403 39.444 38.5369 39.177C39.0721 39.5012 39.55 40.1079 39.8559 40.5831C40.345 40.1522 40.8169 39.7016 41.2688 39.2329L40.9292 38.801C40.5624 38.3444 40.1083 37.8537 39.5136 37.6927C39.6971 37.3827 39.873 37.0676 40.0369 36.7459ZM37.3251 42.5327C37.4846 42.4257 37.6426 42.317 37.7992 42.2066L37.3251 42.5327ZM15.715 13.776L15.5267 14.0163C14.4009 15.4728 13.5607 17.1818 13.5607 19.1444C13.5607 20.2174 13.7938 21.0543 14.0424 21.8574L14.2543 22.5421C14.4598 23.228 14.631 23.9314 14.631 24.7797C14.631 25.6095 14.1557 26.396 13.5771 27.177L13.1801 27.6973L12.777 28.2185C12.1136 29.0891 11.5268 29.9738 11.5268 30.9243C11.5268 31.7862 11.801 32.626 12.7091 34.2771C11.3159 35.669 9.5008 36.4281 8.32885 36.4281C7.94979 36.4281 7.74547 36.3134 7.60862 36.0141C7.49192 35.7563 7.38081 35.4958 7.27528 35.2328C6.60734 35.259 6.13135 35.5928 5.72752 35.9692L5.46768 36.2235L5.22133 36.473C5.05984 36.6339 4.90209 36.7799 4.73756 36.8877C4.07859 36.0026 3.47934 35.0708 2.94554 34.0981C3.27114 34.6864 3.61866 35.2605 3.98789 35.8196C4.16775 35.7235 4.34205 35.5815 4.52234 35.4196L4.943 35.0325C5.43246 34.5892 6.01356 34.1426 6.86678 34.0973C6.71835 33.6398 6.58819 33.1741 6.47629 32.7003C7.96227 32.6707 9.38462 32.0918 10.4689 31.0752C10.2897 30.0543 10.9007 29.0254 11.6295 28.0504L11.9717 27.6045L12.4844 26.9531C13.0935 26.1711 13.6017 25.445 13.6017 24.8124C13.6017 24.1088 13.4633 23.527 13.2941 22.9352L13.0681 22.1584C12.8672 21.4445 12.6864 20.6435 12.6864 19.5585C12.6864 17.7459 13.5659 15.7811 14.8941 14.4374C15.0794 14.2481 15.2811 14.0759 15.4967 13.9227L15.715 13.776ZM6.65886 23.7394L6.34565 23.7364C5.32707 23.7619 4.55596 24.1328 3.8302 24.5409L3.39858 24.7878L2.96813 25.0289C2.17414 25.4565 1.3372 25.7801 0.188304 25.5898C0.418071 27.4193 0.853771 29.1847 1.47134 30.8618L1.47131 30.8618L1.47914 30.8829C1.88591 31.9844 2.37116 33.0477 2.92806 34.066C3.39726 34.0177 3.74717 33.7674 4.08921 33.4745L4.47657 33.1354C4.96032 32.7196 5.50821 32.3362 6.40991 32.3993C6.31471 31.9619 6.23533 31.5178 6.17286 31.0699C5.09063 30.9972 4.44475 31.4384 3.88089 31.8879L3.60414 32.1109L3.33123 32.3213C3.01123 32.5538 2.67894 32.7318 2.26403 32.7547C1.97733 32.1447 1.7157 31.5208 1.47914 30.8829L1.47134 30.8618C2.27067 30.8985 2.84816 30.5931 3.39762 30.229L4.01418 29.8094C4.56989 29.441 5.17025 29.1201 6.00908 29.13C6.00251 28.9438 6 28.7575 6 28.5688C6 28.2302 6.01033 27.8943 6.02865 27.561C5.01304 27.5372 4.3046 27.9031 3.66223 28.3079L3.09543 28.6733C2.471 29.0699 1.84032 29.4002 0.962292 29.3136C0.775971 28.6769 0.615798 28.0302 0.481772 27.3736C1.65085 27.5185 2.47845 27.1463 3.25311 26.7006L3.88095 26.3286C4.57843 25.9171 5.29717 25.5449 6.25396 25.5454C6.35589 24.9365 6.49106 24.3336 6.65886 23.7394ZM0.010728 21.8853C1.39837 22.0762 2.4214 21.6723 3.39931 21.1781L4.374 20.6724C5.43925 20.1324 6.57653 19.6836 8.19201 19.9673C7.83583 20.6102 7.52202 21.2757 7.25258 21.9595C6.03624 21.825 5.12264 22.2122 4.23421 22.6769L3.50731 23.0653C2.53059 23.5823 1.49376 24.0474 0.0364813 23.8839L0.0298869 23.7765C0.0100321 23.3765 0 22.9739 0 22.5689L0.000804858 22.3703L0.010728 21.8853ZM28.583 14.5356C28.0934 12.9074 26.2276 11.6476 23.9998 11.6476C21.772 11.6476 19.9061 12.908 19.4165 14.5356C19.3788 14.6608 19.4295 14.7413 19.574 14.6765C20.0011 14.4931 20.4622 14.4024 20.927 14.4103C21.8359 14.4103 22.6366 14.7449 23.1093 15.3244C23.3202 16.0158 23.3371 17.017 23.1002 17.5873C22.9934 17.5635 22.9061 17.5228 22.8273 17.4768L22.6057 17.3345C22.4969 17.267 22.3827 17.2137 22.2265 17.2137C22.105 17.2137 21.9924 17.2423 21.8734 17.2805L21.6222 17.3639C21.4428 17.4205 21.2337 17.4714 20.9583 17.4714C20.6158 17.4714 20.4403 17.3819 20.2833 17.3019C20.1562 17.2371 20.0412 17.1785 19.8594 17.1785C19.3802 17.1785 19.2917 17.672 19.2917 18.2292C19.2917 20.711 21.573 24.1277 24 24.1277C26.427 24.1277 28.708 20.711 28.708 18.2292C28.708 17.672 28.5935 17.1958 28.0922 17.1304C27.7975 17.3726 27.4222 17.4944 27.0414 17.4714C26.7659 17.4714 26.5792 17.4205 26.4246 17.3639L26.2098 17.2805C26.1074 17.2423 26.0071 17.2137 25.8851 17.2137C25.7158 17.2137 25.6182 17.3512 25.5323 17.5234L25.431 17.7401C25.3277 17.9604 25.2067 18.1713 24.9645 18.1954C24.6175 17.3568 24.5994 16.2827 24.8896 15.3244C25.363 14.745 26.1638 14.4103 27.0726 14.4103C27.5369 14.402 27.9977 14.4928 28.4243 14.6765L28.4804 14.6957C28.5814 14.7175 28.6143 14.6429 28.583 14.5356ZM25.7419 20.8289C25.1682 20.9412 24.5844 20.9932 24 20.9839C23.5324 20.9914 23.0651 20.9597 22.6032 20.8893L22.2578 20.8289C22.1846 20.8566 22.1264 20.9138 22.0976 20.9866C22.1922 21.0593 22.2812 21.1494 22.3703 21.2477L22.644 21.5584C22.9612 21.911 23.3433 22.2548 24 22.2548C24.6567 22.2548 25.0387 21.911 25.3556 21.5584L25.6288 21.2477C25.7178 21.1494 25.8065 21.0594 25.9008 20.9866C25.8723 20.914 25.8146 20.8568 25.7419 20.8289ZM42.5701 10.3163L42.3546 10.4737C41.1544 11.396 40.3172 12.8313 40.0493 14.4374C38.2211 13.2631 36.083 13.0962 34.3161 13.8189C36.1371 15.0956 37.7072 16.697 38.9476 18.5428C40.4578 18.0193 41.7409 18.3805 42.9295 18.8856L43.4335 19.1087L44.1728 19.448C45.2295 19.9247 46.2454 20.2972 47.3266 19.9725C44.7446 17.2325 42.6451 14.1119 42.9216 10.5208L42.9258 10.4667C42.9224 10.3954 42.8833 10.329 42.8195 10.2919C42.7398 10.2455 42.6393 10.2553 42.5701 10.3163ZM5.18001 10.2914C5.24423 10.2546 5.32152 10.2537 5.3854 10.2862L5.43039 10.3168C6.7456 11.2277 7.66671 12.7369 7.94854 14.4374C9.77668 13.2628 11.9161 13.0962 13.6817 13.8189C11.8609 15.0958 10.2906 16.697 9.0494 18.5424C7.43203 17.9814 6.07503 18.4361 4.81553 18.9953L3.82564 19.4476C2.7691 19.9242 1.75318 20.2968 0.671851 19.972C3.17319 17.3169 5.2224 14.306 5.09466 10.8556L5.07544 10.5203C5.05768 10.4295 5.09973 10.3374 5.18001 10.2914ZM24.3339 19.2833C24.4025 19.2586 24.4649 19.2361 24.5546 19.2366C24.7447 19.2378 25.1126 19.3875 25.192 19.5269C25.1872 19.5974 25.1582 19.6641 25.1099 19.7157C25.0037 19.732 24.912 19.759 24.8265 19.7904L24.5803 19.8911C24.4175 19.9585 24.2461 20.0177 23.9995 20.0177C23.7529 20.0177 23.5818 19.9585 23.4189 19.8911L23.1724 19.7904C23.0867 19.759 22.9946 19.732 22.8879 19.7157C22.8404 19.6637 22.812 19.5971 22.8072 19.5269C22.8866 19.3875 23.255 19.2378 23.4451 19.2366C23.535 19.2361 23.5974 19.2586 23.6661 19.2833C23.7488 19.3131 23.8405 19.3462 23.9998 19.3462C24.1594 19.3462 24.2512 19.3131 24.3339 19.2833ZM27.5465 15.2082C28.208 15.2082 28.535 15.4308 28.5348 15.7545C28.5343 15.985 28.4271 16.2024 28.2444 16.343C27.8329 15.8825 26.9774 15.8951 26.0087 16.227C25.9533 16.0951 25.9473 15.9476 25.9918 15.8116C26.3469 15.4168 26.8897 15.2444 27.3838 15.2138L27.5465 15.2082ZM22.2289 16.2725C22.2732 15.7635 21.363 15.2088 20.4529 15.2088C19.7913 15.2088 19.4632 15.4315 19.4632 15.7545C19.4639 15.9852 19.5718 16.2024 19.755 16.343L19.8484 16.261C20.3446 15.8793 21.2708 15.9186 22.2289 16.2725ZM23.9998 6.88786L26.4865 8.77986C26.5805 8.84891 26.5335 8.96602 26.4137 8.9452C24.8164 8.66755 23.1832 8.66755 21.586 8.9452C21.4662 8.96602 21.4192 8.84891 21.5118 8.77986L23.9998 6.88786Z" fill="#006241"/>
</svg>
