<svg width="31" height="12" viewBox="0 0 31 12" fill="none" xmlns="http://www.w3.org/2000/svg">
<path d="M13.1713 5.05909C13.1713 3.7482 13.1713 2.37488 13.1713 1.06399C13.1713 0.814298 13.2338 0.689451 13.5459 0.689451C14.4198 0.689451 15.2937 0.689451 16.2301 0.689451C17.6658 0.689451 18.8519 1.81307 18.9143 3.12396C18.9143 4.62213 17.8531 5.74575 16.3549 5.80817C15.7931 5.80817 15.2313 5.80817 14.6695 5.80817C14.4198 5.80817 14.3574 5.87059 14.3574 6.12029C14.3574 7.05664 14.3574 7.99299 14.3574 8.92934C14.3574 9.24146 14.295 9.30388 13.9828 9.30388C13.2338 9.30388 13.2338 9.30388 13.2338 8.5548C13.1713 7.43118 13.1713 6.24514 13.1713 5.05909ZM14.2325 3.24881C14.2325 3.68577 14.2325 4.12274 14.2325 4.49728C14.2325 4.74697 14.295 4.8094 14.5447 4.8094C15.044 4.8094 15.6059 4.8094 16.1052 4.8094C16.9792 4.8094 17.6658 4.18516 17.6658 3.31123C17.6658 2.49973 17.0416 1.81307 16.1677 1.75065C15.6059 1.68823 15.044 1.75065 14.4822 1.75065C14.2325 1.75065 14.2325 1.8755 14.2325 2.06277C14.2325 2.43731 14.2325 2.81185 14.2325 3.24881Z" fill="#616368"/>
<path d="M22.9718 8.55484C21.973 9.61604 20.9118 9.80331 19.9131 9.2415C19.164 8.80453 18.7894 8.1803 18.8519 7.30637C18.9143 6.49487 19.4137 5.93306 20.1628 5.68336C20.9743 5.43367 21.8482 5.37125 22.6597 5.68336C23.0967 5.80821 23.0342 5.68336 22.9718 5.37125C22.847 4.80943 22.5348 4.49732 22.0355 4.31005C21.4112 4.12278 20.8494 4.1852 20.35 4.62216C20.2252 4.74701 20.1628 4.9967 19.9755 4.93428C19.6634 4.80943 19.4137 4.62216 19.164 4.43489C19.0391 4.31005 19.2264 4.24762 19.2888 4.1852C19.9755 3.31127 20.9743 3.124 22.0355 3.31127C23.4088 3.56097 24.033 4.37247 24.0954 5.74579C24.0954 6.86941 24.0954 7.93061 24.0954 9.05423C24.0954 9.36634 24.033 9.42877 23.7209 9.42877C23.0342 9.36634 23.0342 9.36634 22.9718 8.55484ZM21.5361 6.37002C21.224 6.43244 20.9118 6.43244 20.5997 6.55729C20.2252 6.74456 19.9131 7.05668 19.9755 7.55607C19.9755 7.99303 20.2876 8.30515 20.7246 8.42999C21.6609 8.74211 22.847 7.99303 22.9718 7.05668C23.0342 6.80698 22.9094 6.68214 22.7221 6.61971C22.3476 6.43244 21.973 6.43244 21.5361 6.37002Z" fill="#616368"/>
<path d="M27.2167 7.68095C27.7161 6.49491 28.2155 5.30886 28.6524 4.0604C28.8397 3.56101 29.027 3.31131 29.5888 3.43616C29.7136 3.43616 29.9009 3.43616 30.0258 3.43616C30.0882 3.62343 29.9633 3.68586 29.9009 3.8107C28.7773 6.37006 27.6537 8.92942 26.5925 11.4888C26.4052 11.8633 26.2804 12.0506 25.8434 11.9882C25.6561 11.9882 25.4689 11.9882 25.2192 11.9882C25.6561 11.1142 25.9682 10.2403 26.4052 9.42881C26.5925 9.11669 26.5301 8.867 26.4052 8.55488C25.7185 6.9943 25.0319 5.43371 24.3452 3.87313C24.158 3.49859 24.2828 3.43616 24.5949 3.43616C25.344 3.43616 25.344 3.43616 25.6561 4.12282C26.0931 5.18402 26.5301 6.18279 26.967 7.24399C27.0919 7.36884 27.0919 7.49368 27.2167 7.68095Z" fill="#616368"/>
<path d="M0.561766 2.74946C1.31085 1.18888 2.55932 0.314952 4.24475 0.0652579C5.55564 -0.122012 6.86653 0.0652579 7.99015 1.00161C8.23985 1.18888 8.36469 1.37615 8.05258 1.62584C7.92773 1.68827 7.86531 1.81311 7.80288 1.87554C7.55319 2.12523 7.36592 2.43735 7.0538 2.62462C6.67926 2.81189 6.49199 2.37492 6.17987 2.25008C4.74413 1.62584 3.12113 2.18765 2.43447 3.49855C2.30962 3.68582 2.2472 3.81066 2.18477 3.99793C1.62296 3.56097 1.06115 3.18643 0.561766 2.74946Z" fill="#E94335"/>
<path d="M8.23985 8.74211C6.80411 10.1778 4.05748 10.3651 2.2472 9.11665C1.49812 8.61726 0.936306 7.99303 0.561766 7.18152C1.12358 6.74456 1.62296 6.37002 2.18477 5.93306C2.62174 6.93183 3.3084 7.68091 4.43202 7.9306C5.24352 8.11787 5.9926 7.9306 6.67926 7.55606C7.24107 7.9306 7.74046 8.30514 8.23985 8.74211Z" fill="#35A854"/>
<path d="M8.23994 8.74211C7.74055 8.30514 7.17874 7.9306 6.67935 7.49364C7.05389 7.18152 7.42843 6.80698 7.55328 6.30759C7.6157 6.0579 7.55328 5.99548 7.30358 5.99548C6.61693 5.99548 5.93027 5.99548 5.30604 5.99548C5.05634 5.99548 4.93149 5.93305 4.99392 5.62094C4.99392 5.18397 4.99392 4.74701 4.99392 4.37247C4.99392 4.1852 4.99392 4.06035 5.24361 4.06035C6.61693 4.06035 8.05267 4.06035 9.42598 4.06035C9.61325 4.06035 9.67567 4.12277 9.7381 4.31004C9.86295 5.99548 9.55083 7.55606 8.23994 8.74211Z" fill="#4586F4"/>
<path d="M2.18482 5.93307C1.62301 6.37003 1.12362 6.74457 0.561811 7.18153C-0.18727 5.68337 -0.18727 4.18521 0.561811 2.74947C1.12362 3.18644 1.62301 3.56098 2.18482 3.99794C1.99755 4.62217 1.99755 5.30883 2.18482 5.93307Z" fill="#FABB05"/>
</svg>
