<svg width="20" height="14" viewBox="0 0 20 14" fill="none" xmlns="http://www.w3.org/2000/svg">
<path d="M2.66952 0.780734C2.77277 0.614552 2.96004 0.5 3.17872 0.5H18.4543C18.786 0.5 19.0451 0.764936 19.0451 1.07751V10.8825C19.0451 11.0923 18.9251 11.2828 18.7432 11.3827V1.28073V0.780734H18.2432H2.66952Z" fill="black" stroke="black"/>
<path d="M0.5 6.5742V6.06752H16.9611V6.5742H0.5Z" fill="black" stroke="black"/>
<path d="M0.5 12.842V8.34168H16.9611V12.842C16.9611 13.196 16.6636 13.5 16.2804 13.5H1.18077C0.797571 13.5 0.5 13.196 0.5 12.842ZM1.96273 12.1763H3.38198C3.86394 12.1763 4.27296 11.789 4.27296 11.2928C4.27296 10.917 4.03828 10.6036 3.71497 10.4737H6.48245C6.96441 10.4737 7.37343 10.0864 7.37343 9.59025C7.37343 9.09409 6.96443 8.70679 6.48245 8.70679H1.96273C1.48071 8.70679 1.07175 9.09411 1.07175 9.59025C1.07175 10.0021 1.35355 10.3389 1.72499 10.4415C1.35353 10.5441 1.07175 10.881 1.07175 11.2928C1.07175 11.789 1.48073 12.1763 1.96273 12.1763ZM13.1102 12.4023C13.3856 12.5309 13.6927 12.6019 14.0127 12.6019C15.1625 12.6019 16.1196 11.6824 16.1196 10.5259C16.1196 9.36941 15.1625 8.44988 14.0127 8.44988C13.6927 8.44988 13.3856 8.52089 13.1102 8.64953C12.8321 8.51895 12.5258 8.44988 12.2142 8.44988C11.0597 8.44988 10.1073 9.3702 10.1073 10.5259C10.1073 11.6816 11.0597 12.6019 12.2142 12.6019C12.5258 12.6019 12.832 12.5328 13.1102 12.4023Z" fill="black" stroke="black"/>
<path d="M16.9611 3.20569V4.30087H0.5V3.20569C0.5 2.8544 0.798667 2.54765 1.18077 2.54765H16.2804C16.6625 2.54765 16.9611 2.85439 16.9611 3.20569Z" fill="black" stroke="black"/>
</svg>
