<svg width="19" height="19" viewBox="0 0 19 19" fill="none" xmlns="http://www.w3.org/2000/svg">
<path d="M9.34175 8.62917C7.54467 8.16208 6.96675 7.67917 6.96675 6.92708C6.96675 6.06417 7.76633 5.4625 9.10425 5.4625C10.5134 5.4625 11.0359 6.13542 11.0834 7.125H12.833C12.7776 5.76333 11.9463 4.5125 10.2918 4.10875V2.375H7.91675V4.085C6.38092 4.4175 5.14592 5.415 5.14592 6.94292C5.14592 8.77167 6.658 9.68208 8.86675 10.2125C10.8459 10.6875 11.2418 11.3842 11.2418 12.1204C11.2418 12.6667 10.8538 13.5375 9.10425 13.5375C7.47342 13.5375 6.83217 12.8092 6.74508 11.875H5.00342C5.09842 13.6088 6.39675 14.5825 7.91675 14.9071V16.625H10.2918V14.9229C11.8355 14.63 13.0626 13.7354 13.0626 12.1125C13.0626 9.86417 11.1388 9.09625 9.34175 8.62917Z" fill="#212121"/>
</svg>
