<svg width="36" height="14" viewBox="0 0 36 14" fill="none" xmlns="http://www.w3.org/2000/svg">
<path d="M17.9954 0C11.3668 0 5.13629 1.39307 2.02868 4.50067C0.620303 5.90905 -0.0838842 7.60828 0.00796633 9.65961C0.0692 10.8996 0.45191 12.0018 1.17141 12.7213C1.7072 13.2724 2.45731 13.5786 3.32989 13.4408L9.00932 12.4764C9.86659 12.3386 10.4636 12.0783 10.8463 11.6803C11.3515 11.1905 11.5046 10.4556 11.5046 9.49122V7.94507C11.5046 7.70013 11.6117 7.51643 11.7648 7.36335C11.9179 7.17965 12.1475 7.10311 12.3159 7.05718C13.3569 6.81225 15.4695 6.58262 17.9954 6.58262C20.5212 6.58262 22.6185 6.76632 23.6748 7.07249C23.8279 7.11841 24.0422 7.21026 24.2106 7.36335C24.3484 7.51643 24.4402 7.68483 24.4555 7.92976L24.4708 9.49122C24.4861 10.4556 24.6392 11.1905 25.1291 11.6803C25.5271 12.0783 26.1241 12.3386 26.9814 12.4764L32.5843 13.4255C33.4875 13.5786 34.2529 13.2571 34.8499 12.6754C35.5694 11.9712 35.9674 10.8843 35.9981 9.6443C36.044 7.57767 35.2479 5.87843 33.8702 4.50067C30.7626 1.39307 24.6239 0 17.9954 0Z" fill="white"/>
</svg>
